# xmcd CD database file
#
# Track frame offsets:
#	150
#	9712
#	25637
#	42547
#	58635
#	68502
#	83535
#	123490
#	142035
#	163370
#	178612
#	193825
#
# Disc length: 2819 seconds
#
# Revision: 0
# Processed by: cddbd v1.4PL0 Copyright (c) Steve Scherf et al.
# Submitted via: CDex 1.40Beta6
#
DISCID=a40b010c
DTITLE=Peer Gynt - The king of Mountain Blues
DYEAR=1996
DGENRE=Blues
TTITLE0=Suzy Q
TTITLE1=Good Lord
TTITLE2=Life saver
TTITLE3=Mind vibes
TTITLE4=Tractor boogie
TTITLE5=Hey mama
TTITLE6=River of peace
TTITLE7=Devils waltz
TTITLE8=Loser
TTITLE9=Mountain virgin
TTITLE10=Burn in vain
TTITLE11=Rain
EXTD=
EXTT0=
EXTT1=
EXTT2=
EXTT3=
EXTT4=
EXTT5=
EXTT6=
EXTT7=
EXTT8=
EXTT9=
EXTT10=
EXTT11=
PLAYORDER=
